<svg width="1263" height="647" xmlns="http://www.w3.org/2000/svg" xmlns:xlink="http://www.w3.org/1999/xlink" xml:space="preserve" overflow="hidden"><g transform="translate(-9 -32)"><text fill="#4D4D4D" font-family="SimSun,SimSun_MSFontService,Arial" font-weight="400" font-size="12" transform="translate(325.376 129)">醫療器械</text><text font-family="SimSun,SimSun_MSFontService,Arial" font-weight="400" font-size="12" transform="translate(207.217 53)">化學</text><path d="M28 175C20.268 175 14 173.955 14 172.667L14 89.8333C14 88.5447 7.73199 87.5 2.78498e-15 87.5 7.73199 87.5 14 86.4553 14 85.1667L14 2.33333C14 1.04467 20.268 -3.48122e-16 28-1.04437e-15" stroke="#0070C0" stroke-width="0.666667" stroke-miterlimit="8" fill="none" fill-rule="evenodd" transform="matrix(-1 0 0 1 269.5 35.5001)"/><text font-family="SimSun,SimSun_MSFontService,Arial" font-weight="400" font-size="12" transform="translate(207.217 82)">光學</text><text font-family="SimSun,SimSun_MSFontService,Arial" font-weight="400" font-size="12" transform="translate(207.217 112)">電子</text><text font-family="SimSun,SimSun_MSFontService,Arial" font-weight="400" font-size="12" transform="translate(207.217 141)">機械</text><text font-family="SimSun,SimSun_MSFontService,Arial" font-weight="400" font-size="12" transform="translate(207.217 172)">化工</text><text font-family="SimSun,SimSun_MSFontService,Arial" font-weight="400" font-size="12" transform="translate(183.217 203)">應用數學</text><text fill="#4D4D4D" font-family="SimSun,SimSun_MSFontService,Arial" font-weight="400" font-size="12" transform="translate(283.376 158)">解剖學、生理學、病理學</text><path d="M27 120C19.5442 120 13.5 118.993 13.5 117.75L13.5 62.2499C13.5 61.0073 7.45584 60 2.86455e-15 60 7.45584 60 13.5 58.9927 13.5 57.7501L13.5 2.24987C13.5 1.0073 19.5442 0 27 -9.5485e-16" stroke="#0070C0" stroke-width="0.666667" stroke-miterlimit="8" fill="none" fill-rule="evenodd" transform="matrix(-1 0 0 1 457.5 108.5)"/><text fill="#4D4D4D" font-family="SimSun,SimSun_MSFontService,Arial" font-weight="400" font-size="12" transform="translate(485.489 173)">實驗室診斷、影像診斷</text><text fill="#4D4D4D" font-family="SimSun,SimSun_MSFontService,Arial" font-weight="400" font-size="12" transform="translate(467.489 203)">臨床診斷（望、聞、問、切）</text><path d="M28 88C20.268 88 14 86.9554 14 85.6668L14 46.3332C14 45.0446 7.73201 44 2.8009e-15 44 7.73201 44 14 42.9554 14 41.6668L14 2.33319C14 1.04461 20.2681 -3.50112e-16 28.0001-1.05034e-15" stroke="#0070C0" stroke-width="0.666667" stroke-miterlimit="8" fill="none" fill-rule="evenodd" transform="matrix(-1 0 0 1 663.5 153.5)"/><text fill="#4D4D4D" font-family="SimSun,SimSun_MSFontService,Arial" font-weight="400" font-size="12" transform="translate(742.375 203)">醫學診斷</text><text fill="#4D4D4D" font-family="SimSun,SimSun_MSFontService,Arial" font-weight="400" font-size="12" transform="translate(670.375 233)">醫</text><text font-family="SimSun,SimSun_MSFontService,Arial" font-weight="400" font-size="12" transform="translate(682.375 233)">學治療（</text><text font-family="SimSun,SimSun_MSFontService,Arial" font-weight="400" font-size="12" transform="translate(730.375 233)">導引按蹻、針石、湯藥</text><text font-family="SimSun,SimSun_MSFontService,Arial" font-weight="400" font-size="12" transform="translate(850.375 233)">）</text><path d="M28 147C20.268 147 13.9999 145.955 13.9999 144.667L14.0001 75.8333C14.0001 74.5446 7.73203 73.5 2.33939e-15 73.5 7.73203 73.5 14.0001 72.4554 14.0001 71.1667L14.0001 2.33329C14.0001 1.04465 20.2681 -5.84846e-16 28.0002-1.16969e-15" stroke="#0070C0" stroke-width="0.666667" stroke-miterlimit="8" fill="none" fill-rule="evenodd" transform="matrix(-1 0 0 1 899.5 182.5)"/><text fill="#4D4D4D" font-family="SimSun,SimSun_MSFontService,Arial" font-weight="400" font-size="12" transform="translate(911.606 262)">效用價值：質量（舒適）、數量（時長）</text><text fill="#4D4D4D" font-family="SimSun,SimSun_MSFontService,Arial" font-weight="400" font-size="12" transform="translate(995.606 292)">行銷傳播</text><path d="M28 59C20.268 59 14 57.9554 14 56.6668L14 31.8332C14 30.5446 7.73199 29.5 2.81681e-15 29.5 7.73199 29.5 14 28.4554 14 27.1668L14 2.33322C14 1.04462 20.268 -4.69468e-16 28 -9.38936e-16" stroke="#0070C0" stroke-width="0.666667" stroke-miterlimit="8" fill="none" fill-rule="evenodd" transform="matrix(-1 0 0 1 1168.5 241.5)"/><text fill="#4D4D4D" font-family="SimSun,SimSun_MSFontService,Arial" font-weight="400" font-size="12" transform="translate(1178.55 277)">用戶</text><text fill="#4D4D4D" font-family="SimSun,SimSun_MSFontService,Arial" font-weight="400" font-size="12" transform="translate(295.376 189)">檢測系統的性能估計</text><text fill="#4D4D4D" font-family="SimSun,SimSun_MSFontService,Arial" font-weight="400" font-size="12" transform="translate(283.376 219)">檢測過程的質量控制設計</text><text fill="#4D4D4D" font-family="SimSun,SimSun_MSFontService,Arial" font-weight="400" font-size="12" transform="translate(503.694 232)">診斷準確度估計</text><text fill="#4D4D4D" font-family="SimSun,SimSun_MSFontService,Arial" font-weight="400" font-size="12" transform="translate(724.418 262)">衛生經濟學評價</text><text fill="#4D4D4D" font-family="SimSun,SimSun_MSFontService,Arial" font-weight="400" font-size="12" transform="translate(730.418 292)">臨床證據評價</text><text fill="#4D4D4D" font-family="SimSun,SimSun_MSFontService,Arial" font-weight="400" font-size="12" transform="translate(712.623 321)">基於證據的決策分析</text><text fill="#4D4D4D" font-family="SimSun,SimSun_MSFontService,Arial" font-weight="400" font-size="12" transform="translate(221.011 506)">醫療器械</text><text fill="#4D4D4D" font-family="SimSun,SimSun_MSFontService,Arial" font-weight="400" font-size="12" transform="translate(179.011 536)">解剖學、生理學、病理學</text><path d="M27 120C19.5442 120 13.5 118.993 13.5 117.75L13.5 62.2499C13.5 61.0073 7.45584 60 2.86455e-15 60 7.45584 60 13.5 58.9927 13.5 57.7501L13.5 2.24987C13.5 1.0073 19.5442 0 27 -9.5485e-16" stroke="#0070C0" stroke-width="0.666667" stroke-miterlimit="8" fill="none" fill-rule="evenodd" transform="matrix(-1 0 0 1 350.5 485.5)"/><text fill="#4D4D4D" font-family="SimSun,SimSun_MSFontService,Arial" font-weight="400" font-size="12" transform="translate(374.035 551)">實驗室診斷、影像診斷</text><text fill="#4D4D4D" font-family="SimSun,SimSun_MSFontService,Arial" font-weight="400" font-size="12" transform="translate(356.035 580)">臨床診斷（望、聞、問、切）</text><path d="M28 88C20.268 88 14 86.9554 14 85.6668L14 46.3332C14 45.0446 7.73201 44 2.8009e-15 44 7.73201 44 14 42.9554 14 41.6668L14 2.33319C14 1.04461 20.2681 -3.50112e-16 28.0001-1.05034e-15" stroke="#0070C0" stroke-width="0.666667" stroke-miterlimit="8" fill="none" fill-rule="evenodd" transform="matrix(-1 0 0 1 546.5 530.5)"/><text fill="#4D4D4D" font-family="SimSun,SimSun_MSFontService,Arial" font-weight="400" font-size="12" transform="translate(588.313 580)">醫學診斷</text><path d="M28 117C20.268 117 14 115.955 14 114.667L14 60.8332C14 59.5446 7.73199 58.5 2.79295e-15 58.5 7.73199 58.5 14 57.4554 14 56.1668L14 2.33322C14 1.04462 20.268 0 28 -9.30979e-16" stroke="#0070C0" stroke-width="0.666667" stroke-miterlimit="8" fill="none" fill-rule="evenodd" transform="matrix(-1 0 0 1 706.5 560.5)"/><text fill="#4D4D4D" font-family="SimSun,SimSun_MSFontService,Arial" font-weight="400" font-size="12" transform="translate(944.007 625)">效用價值：質量（舒適）、數量（時長）</text><text fill="#4D4D4D" font-family="SimSun,SimSun_MSFontService,Arial" font-weight="400" font-size="12" transform="translate(1028.01 655)">行銷傳播</text><path d="M28 58C20.268 58 14 56.9554 14 55.6667L14 31.3333C14 30.0446 7.73199 29 9.23023e-16 29 7.73199 29 14 27.9554 14 26.6667L14 2.33326C14 1.04463 20.268 0 28 -9.23022e-16" stroke="#0070C0" stroke-width="0.666667" stroke-miterlimit="8" fill="none" fill-rule="evenodd" transform="matrix(-1 0 0 1 1195.5 605.5)"/><text fill="#4D4D4D" font-family="SimSun,SimSun_MSFontService,Arial" font-weight="400" font-size="12" transform="translate(1236.52 640)">用戶</text><text fill="#4D4D4D" font-family="SimSun,SimSun_MSFontService,Arial" font-weight="400" font-size="12" transform="translate(191.011 566)">檢測系統的性能估計</text><text fill="#4D4D4D" font-family="SimSun,SimSun_MSFontService,Arial" font-weight="400" font-size="12" transform="translate(179.011 596)">檢測過程的質量控制設計</text><text fill="#4D4D4D" font-family="SimSun,SimSun_MSFontService,Arial" font-weight="400" font-size="12" transform="translate(392.24 610)">診斷準確度估計</text><text fill="#4D4D4D" font-family="SimSun,SimSun_MSFontService,Arial" font-weight="400" font-size="12" transform="translate(570.369 610)">衛生經濟學評價</text><text fill="#4D4D4D" font-family="SimSun,SimSun_MSFontService,Arial" font-weight="400" font-size="12" transform="translate(576.369 640)">臨床證據評價</text><text fill="#4D4D4D" font-family="SimSun,SimSun_MSFontService,Arial" font-weight="400" font-size="12" transform="translate(558.574 669)">基於證據的決策分析</text><path d="M1.15741e-06-0.333333 22.2362-0.333256 22.2362 0.333411-1.15741e-06 0.333333ZM22.2362 7.72091e-05 16.9029-3.99994 30.2362 0.000104987 16.9029 4.00006Z" fill="#4472C4" transform="matrix(-1 0 0 1 1225.74 634.5)"/><path d="M1.15741e-06-0.333333 22.2362-0.333256 22.2362 0.333411-1.15741e-06 0.333333ZM22.2362 7.72091e-05 16.9029-3.99994 30.2362 0.000104987 16.9029 4.00006Z" fill="#4472C4" transform="matrix(-1 0 0 1 937.736 619.5)"/><text fill="#4D4D4D" font-family="SimSun,SimSun_MSFontService,Arial" font-weight="400" font-size="12" transform="translate(710.57 625)">醫</text><text font-family="SimSun,SimSun_MSFontService,Arial" font-weight="400" font-size="12" transform="translate(722.57 625)">學治療（</text><text font-family="SimSun,SimSun_MSFontService,Arial" font-weight="400" font-size="12" transform="translate(770.57 625)">導引按蹻、針石、湯藥</text><text font-family="SimSun,SimSun_MSFontService,Arial" font-weight="400" font-size="12" transform="translate(890.57 625)">）</text><path d="M277.5 367.167 1063.2 367.167 1063.2 367.833 277.5 367.833ZM1063.2 367.5 1057.87 363.5 1071.2 367.5 1057.87 371.5Z" fill="#C00000"/><text fill="#4D4D4D" font-family="SimSun,SimSun_MSFontService,Arial" font-weight="400" font-size="15" transform="translate(207.938 375)">價值傳遞</text><path d="M285.499 383.167 1071.2 383.167 1071.2 383.833 285.499 383.833ZM285.5 383.5 290.833 387.5 277.5 383.5 290.833 379.5Z" fill="#C00000"/><text fill="#4D4D4D" font-family="SimSun,SimSun_MSFontService,Arial" font-weight="400" font-size="15" transform="translate(1080.74 391)">支付傳遞</text><text font-family="SimSun,SimSun_MSFontService,Arial" font-weight="400" font-size="12" transform="translate(105.838 430)">化學</text><path d="M27 175C19.5442 175 13.5 173.993 13.5 172.75L13.5 89.7499C13.5 88.5073 7.45584 87.5 2.785e-15 87.5 7.45584 87.5 13.5 86.4927 13.5 85.2501L13.5 2.24989C13.5 1.00731 19.5442 -3.48122e-16 27-1.04437e-15" stroke="#0070C0" stroke-width="0.666667" stroke-miterlimit="8" fill="none" fill-rule="evenodd" transform="matrix(-1 0 0 1 167.5 412.5)"/><text font-family="SimSun,SimSun_MSFontService,Arial" font-weight="400" font-size="12" transform="translate(105.838 459)">光學</text><text font-family="SimSun,SimSun_MSFontService,Arial" font-weight="400" font-size="12" transform="translate(105.838 489)">電子</text><text font-family="SimSun,SimSun_MSFontService,Arial" font-weight="400" font-size="12" transform="translate(105.838 518)">機械</text><text font-family="SimSun,SimSun_MSFontService,Arial" font-weight="400" font-size="12" transform="translate(105.838 549)">化工</text><text font-family="SimSun,SimSun_MSFontService,Arial" font-weight="400" font-size="12" transform="translate(81.8377 579)">應用數學</text></g></svg>