<svg width="1789" height="990" xmlns="http://www.w3.org/2000/svg" xmlns:xlink="http://www.w3.org/1999/xlink" xml:space="preserve" overflow="hidden"><g transform="translate(337 124)"><text font-family="SimSun,SimSun_MSFontService,Arial" font-weight="400" font-size="12" transform="translate(-58.5306 139)">特定臨床情況下的質量規範</text><text font-family="SimSun,SimSun_MSFontService,Arial" font-weight="400" font-size="12" transform="translate(-234.622 166)">基於生物變異</text><text font-family="Times New Roman,Times New Roman_MSFontService,Arial" font-weight="400" font-size="12" transform="translate(-160.288 166)">(</text><text font-family="Times New Roman,Times New Roman_MSFontService,Arial" font-weight="400" font-size="9" transform="translate(-153.955 166)">biological variation , reference interval </text><text font-family="Times New Roman,Times New Roman_MSFontService,Arial" font-weight="400" font-size="12" transform="translate(-4.95506 166)">)</text><text font-family="SimSun,SimSun_MSFontService,Arial" font-weight="400" font-size="12" transform="translate(1.37827 166)">的一般質量規範</text><text font-family="SimSun,SimSun_MSFontService,Arial" font-weight="400" font-size="12" transform="translate(-158.723 193)">基於醫療觀點</text><text font-family="Times New Roman,Times New Roman_MSFontService,Arial" font-weight="400" font-size="9" transform="translate(-84.3893 193)">( clinicians' opinions ) </text><text font-family="SimSun,SimSun_MSFontService,Arial" font-weight="400" font-size="12" transform="translate(1.44399 193)">的一般質量規範</text><text font-family="SimSun,SimSun_MSFontService,Arial" font-weight="400" font-size="12" transform="translate(-46.4122 220)">國家或國際專家小組指南</text><text font-family="SimSun,SimSun_MSFontService,Arial" font-weight="400" font-size="12" transform="translate(-82.4304 246)">專家個人或學會工作組專家指南</text><text font-family="SimSun,SimSun_MSFontService,Arial" font-weight="400" font-size="12" transform="translate(-58.3627 273)">由法規機構制定的質量規範</text><text font-family="SimSun,SimSun_MSFontService,Arial" font-weight="400" font-size="12" transform="translate(-118.282 300)">由室間質量評價組織者制定的質量規範</text><text font-family="SimSun,SimSun_MSFontService,Arial" font-weight="400" font-size="12" transform="translate(-254.967 327)">已發表的能力驗證和室間質量評價</text><text font-family="Times New Roman,Times New Roman_MSFontService,Arial" font-weight="400" font-size="9" transform="translate(-72.6333 327)">( External Quality Assessment ) </text><text font-family="SimSun,SimSun_MSFontService,Arial" font-weight="400" font-size="12" transform="translate(49.7 327)">的數據</text><text font-family="SimSun,SimSun_MSFontService,Arial" font-weight="400" font-size="12" transform="translate(-220.156 354)">已發表的特定的方法學</text><text font-family="Times New Roman,Times New Roman_MSFontService,Arial" font-weight="400" font-size="9" transform="translate(-97.8231 354)">( found in current publications on methodology )</text><path d="M95.5001 118.5C102.956 118.5 109 119.507 109 120.75L109 237.25C109 238.493 115.044 239.5 122.5 239.5 115.044 239.5 109 240.507 109 241.75L109 358.25C109 359.493 102.956 360.5 95.5001 360.5" stroke="#FF00FF" stroke-width="0.933333" stroke-miterlimit="8" stroke-opacity="0.301961" fill="none" fill-rule="evenodd"/><text font-family="SimSun,SimSun_MSFontService,Arial" font-weight="400" font-size="12" transform="translate(132.161 246)">醫學檢驗品質目標</text><text font-family="Times New Roman,Times New Roman_MSFontService,Arial" font-weight="400" font-size="9" transform="translate(176.161 264)">Quality target</text><text font-family="SimSun,SimSun_MSFontService,Arial" font-weight="400" font-size="12" transform="translate(-46.5306 394)">檢驗系統的</text><text font-family="SimSun,SimSun_MSFontService,Arial" font-weight="400" font-size="12" transform="translate(13.4694 394)">刻度變差</text><text font-family="SimSun,SimSun_MSFontService,Arial" font-weight="400" font-size="12" transform="translate(61.4694 394)">估計</text><text font-family="SimSun,SimSun_MSFontService,Arial" font-weight="400" font-size="12" transform="translate(-46.5191 421)">檢驗系統的</text><text font-family="SimSun,SimSun_MSFontService,Arial" font-weight="400" font-size="12" transform="translate(13.4809 421)">位置變差</text><text font-family="SimSun,SimSun_MSFontService,Arial" font-weight="400" font-size="12" transform="translate(61.4809 421)">估計</text><text font-family="SimSun,SimSun_MSFontService,Arial" font-weight="400" font-size="12" transform="translate(-58.6365 447)">檢驗系統的</text><text font-family="SimSun,SimSun_MSFontService,Arial" font-weight="400" font-size="12" transform="translate(1.36352 447)">抗干擾能力</text><text font-family="SimSun,SimSun_MSFontService,Arial" font-weight="400" font-size="12" transform="translate(61.3635 447)">估計</text><text font-family="SimSun,SimSun_MSFontService,Arial" font-weight="400" font-size="12" transform="translate(-34.295 474)">檢驗系統的</text><text font-family="SimSun,SimSun_MSFontService,Arial" font-weight="400" font-size="12" transform="translate(25.705 474)">檢出限</text><text font-family="SimSun,SimSun_MSFontService,Arial" font-weight="400" font-size="12" transform="translate(61.705 474)">估計</text><text font-family="SimSun,SimSun_MSFontService,Arial" font-weight="400" font-size="12" transform="translate(-80.5792 501)">檢驗系統的</text><text font-family="SimSun,SimSun_MSFontService,Arial" font-weight="400" font-size="12" transform="translate(-20.5792 501)">穩定性</text><text font-family="Times New Roman,Times New Roman_MSFontService,Arial" font-weight="400" font-size="9" transform="translate(17.7541 501)">( stability ) </text><text font-family="SimSun,SimSun_MSFontService,Arial" font-weight="400" font-size="12" transform="translate(61.5875 501)">估計</text><text font-family="SimSun,SimSun_MSFontService,Arial" font-weight="400" font-size="12" transform="translate(-216.911 528)">檢驗系統量值傳遞測量不確定度</text><text font-family="Times New Roman,Times New Roman_MSFontService,Arial" font-weight="400" font-size="9" transform="translate(-46.5772 528)">( measurement uncertainty ) </text><text font-family="SimSun,SimSun_MSFontService,Arial" font-weight="400" font-size="12" transform="translate(61.5895 528)">估計</text><path d="M95.5001 373.5C102.956 373.5 109 374.507 109 375.75L109 452.25C109 453.493 115.044 454.5 122.5 454.5 115.044 454.5 109 455.507 109 456.75L109 533.25C109 534.493 102.956 535.5 95.5001 535.5" stroke="#FF00FF" stroke-width="0.933333" stroke-miterlimit="8" stroke-opacity="0.301961" fill="none" fill-rule="evenodd"/><text font-family="SimSun,SimSun_MSFontService,Arial" font-weight="400" font-size="12" transform="translate(132.291 460)">檢驗系統測量性能評估</text><text font-family="Times New Roman,Times New Roman_MSFontService,Arial" font-weight="400" font-size="9" transform="translate(160.124 478)">System Characterization</text><path d="M262.5 225.5C269.956 225.5 276 226.507 276 227.75L276 353.75C276 354.993 282.044 356 289.5 356 282.044 356 276 357.007 276 358.25L276 484.25C276 485.493 269.956 486.5 262.5 486.5" stroke="#FF00FF" stroke-width="0.933333" stroke-miterlimit="8" stroke-opacity="0.301961" fill="none" fill-rule="evenodd"/><text font-family="SimSun,SimSun_MSFontService,Arial" font-weight="400" font-size="12" transform="translate(299.651 360)">醫學上重要的誤差</text><text font-family="Times New Roman,Times New Roman_MSFontService,Arial" font-weight="400" font-size="9" transform="translate(294.151 378)">Medically important errors</text><text font-family="SimSun,SimSun_MSFontService,Arial" font-weight="400" font-size="12" transform="translate(278.353 677)">過程能力指數分級</text><text font-family="Times New Roman,Times New Roman_MSFontService,Arial" font-weight="400" font-size="9" transform="translate(189.853 695)">Process Capability index ( Precision , Accuracy )</text><text font-family="SimSun,SimSun_MSFontService,Arial" font-weight="400" font-size="12" transform="translate(-14.609 620)">誤差檢出的平均運行測量批數</text><text font-family="Times New Roman,Times New Roman_MSFontService,Arial" font-weight="400" font-size="9" transform="translate(3.89103 638)">average run length of error detection</text><path d="M0 0C7.17973 0 13.0001 0.970014 13.0001 2.16659L13.0001 43.8334C13.0001 45.03 18.8204 46 26.0001 46 18.8204 46 13.0001 46.97 13.0001 48.1666L13.0001 89.8334C13.0001 91.03 7.17973 92 1.46411e-15 92" stroke="#FF00FF" stroke-width="0.933333" stroke-miterlimit="8" stroke-opacity="0.301961" fill="none" fill-rule="evenodd" transform="matrix(-1 0 0 1 -49.5001 599.5)"/><text font-family="SimSun,SimSun_MSFontService,Arial" font-weight="400" font-size="12" transform="translate(-242.678 631)">檢驗系統誤差發生分布特徵</text><text font-family="Times New Roman,Times New Roman_MSFontService,Arial" font-weight="400" font-size="9" transform="translate(-206.178 649)">Errors statistical distribution</text><text font-family="SimSun,SimSun_MSFontService,Arial" font-weight="400" font-size="12" transform="translate(-50.609 666)">兩次假失控之間的平均運行測量批數</text><text font-family="Times New Roman,Times New Roman_MSFontService,Arial" font-weight="400" font-size="9" transform="translate(2.72436 684)">average run length for false rejection</text><path d="M144.5 599.5C151.68 599.5 157.5 600.47 157.5 601.667L157.5 643.333C157.5 644.53 163.32 645.5 170.5 645.5 163.32 645.5 157.5 646.47 157.5 647.667L157.5 689.333C157.5 690.53 151.68 691.5 144.5 691.5" stroke="#FF00FF" stroke-width="0.933333" stroke-miterlimit="8" stroke-opacity="0.301961" fill="none" fill-rule="evenodd"/><text font-family="SimSun,SimSun_MSFontService,Arial" font-weight="400" font-size="12" transform="translate(239.148 603)">功效函數</text><text font-family="Times New Roman,Times New Roman_MSFontService,Arial" font-weight="400" font-size="9" transform="translate(289.481 603)">( Power </text><text font-family="Times New Roman,Times New Roman_MSFontService,Arial" font-weight="400" font-size="9" transform="translate(321.148 603)">Function </text><text font-family="Times New Roman,Times New Roman_MSFontService,Arial" font-weight="400" font-size="9" transform="translate(356.814 603)">) </text><text font-family="SimSun,SimSun_MSFontService,Arial" font-weight="400" font-size="12" transform="translate(362.314 603)">圖</text><path d="M0 0C7.45584 0 13.5 1.0073 13.5 2.24987L13.5 54.2501C13.5 55.4927 19.5442 56.5 27 56.5 19.5442 56.5 13.5 57.5073 13.5 58.7499L13.5 110.75C13.5 111.993 7.45584 113 2.69746e-15 113" stroke="#FF00FF" stroke-width="0.933333" stroke-miterlimit="8" stroke-opacity="0.301961" fill="none" fill-rule="evenodd" transform="matrix(-1 0 0 1 188.5 589.5)"/><text font-family="SimSun,SimSun_MSFontService,Arial" font-weight="400" font-size="12" transform="translate(290.314 632)">操作過程規範圖</text><text font-family="Times New Roman,Times New Roman_MSFontService,Arial" font-weight="400" font-size="9" transform="translate(243.314 650)">Operational Process Specifications</text><path d="M379.5 582.5C386.68 582.5 392.5 583.47 392.5 584.667L392.5 640.333C392.5 641.53 398.32 642.5 405.5 642.5 398.32 642.5 392.5 643.47 392.5 644.667L392.5 700.333C392.5 701.53 386.68 702.5 379.5 702.5" stroke="#FF00FF" stroke-width="0.933333" stroke-miterlimit="8" stroke-opacity="0.301961" fill="none" fill-rule="evenodd"/><path d="M405.5 339.5C412.956 339.5 419 340.507 419 341.75L419 488.75C419 489.993 425.044 491 432.5 491 425.044 491 419 492.007 419 493.25L419 640.25C419 641.493 412.956 642.5 405.5 642.5" stroke="#FF00FF" stroke-width="0.933333" stroke-miterlimit="8" stroke-opacity="0.301961" fill="none" fill-rule="evenodd"/><text font-family="SimSun,SimSun_MSFontService,Arial" font-weight="400" font-size="12" transform="translate(546.193 448)">檢測批質控品測定數量</text><text font-family="Times New Roman,Times New Roman_MSFontService,Arial" font-weight="400" font-size="9" transform="translate(606.527 466)">Control number</text><path d="M0 0C7.17974 0 13.0001 0.969979 13.0001 2.16651L13.0001 61.8335C13.0001 63.03 18.8204 64 26.0001 64 18.8204 64 13.0001 64.97 13.0001 66.1665L13.0001 125.833C13.0001 127.03 7.17974 128 1.01851e-15 128" stroke="#FF00FF" stroke-width="0.933333" stroke-miterlimit="8" stroke-opacity="0.301961" fill="none" fill-rule="evenodd" transform="matrix(-1 0 0 1 541.5 427.5)"/><text font-family="SimSun,SimSun_MSFontService,Arial" font-weight="400" font-size="12" transform="translate(618.193 488)">控制規則</text><text font-family="Times New Roman,Times New Roman_MSFontService,Arial" font-weight="400" font-size="9" transform="translate(620.527 506)">Control rule</text><text font-family="SimSun,SimSun_MSFontService,Arial" font-weight="400" font-size="12" transform="translate(582.142 529)">最佳檢測批長度</text><text font-family="Times New Roman,Times New Roman_MSFontService,Arial" font-weight="400" font-size="9" transform="translate(619.642 547)">Run </text><text font-family="Times New Roman,Times New Roman_MSFontService,Arial" font-weight="400" font-size="9" transform="translate(637.475 547)">number</text><path d="M677.5 427.5C684.68 427.5 690.5 428.47 690.5 429.667L690.5 488.834C690.5 490.03 696.32 491 703.5 491 696.32 491 690.5 491.97 690.5 493.167L690.5 552.333C690.5 553.53 684.68 554.5 677.5 554.5" stroke="#FF00FF" stroke-width="0.933333" stroke-miterlimit="8" stroke-opacity="0.301961" fill="none" fill-rule="evenodd"/><text font-family="SimSun,SimSun_MSFontService,Arial" font-weight="400" font-size="12" transform="translate(826.95 447)">檢測</text><text font-family="SimSun,SimSun_MSFontService,Arial" font-weight="400" font-size="12" transform="translate(850.95 447)">過程的品質</text><text font-family="Times New Roman,Times New Roman_MSFontService,Arial" font-weight="400" font-size="9" transform="translate(845.117 465)">Test quality costs</text><path d="M0 0C7.45588 0 13.5001 1.00733 13.5001 2.24994L13.5001 61.7501C13.5001 62.9927 19.5443 64 27.0001 64 19.5443 64 13.5001 65.0073 13.5001 66.2499L13.5001 125.75C13.5001 126.993 7.45588 128 2.03702e-15 128" stroke="#FF00FF" stroke-width="0.933333" stroke-miterlimit="8" stroke-opacity="0.301961" fill="none" fill-rule="evenodd" transform="matrix(-1 0 0 1 805.5 426.5)"/><text font-family="SimSun,SimSun_MSFontService,Arial" font-weight="400" font-size="12" transform="translate(814.95 488)">檢測過程的生產率</text><text font-family="Times New Roman,Times New Roman_MSFontService,Arial" font-weight="400" font-size="9" transform="translate(873.617 506)">Test yield</text><text font-family="SimSun,SimSun_MSFontService,Arial" font-weight="400" font-size="12" transform="translate(826.899 528)">檢測過程的風險</text><text font-family="Times New Roman,Times New Roman_MSFontService,Arial" font-weight="400" font-size="9" transform="translate(827.899 546)">Test risk management</text><path d="M913.5-24.5001C920.956-24.5001 927-23.4929 927-22.2506L927 334.75C927 335.993 933.045 337 940.501 337 933.045 337 927 338.007 927 339.249L927 696.251C927 697.493 920.956 698.5 913.5 698.5" stroke="#FF00FF" stroke-width="0.933333" stroke-miterlimit="8" stroke-opacity="0.301961" fill="none" fill-rule="evenodd"/><text font-family="SimSun,SimSun_MSFontService,Arial" font-weight="400" font-size="12" transform="translate(826.853 673)">診斷準確度估計</text><text font-family="Times New Roman,Times New Roman_MSFontService,Arial" font-weight="400" font-size="9" transform="translate(786.519 691)">Reporting</text><text font-family="Times New Roman,Times New Roman_MSFontService,Arial" font-weight="400" font-size="9" transform="translate(826.353 691)">of diagnostic accuracy</text><text font-family="SimSun,SimSun_MSFontService,Arial" font-weight="400" font-size="12" transform="translate(826.817 302)">診斷的經濟評價</text><text font-family="Times New Roman,Times New Roman_MSFontService,Arial" font-weight="400" font-size="9" transform="translate(782.15 320)">Economic appraisal for diagnostic</text><text font-family="SimSun,SimSun_MSFontService,Arial" font-weight="400" font-size="12" transform="translate(1191.29 342)">證據評價、分級、推薦</text><text font-family="Times New Roman,Times New Roman_MSFontService,Arial" font-weight="400" font-size="9" transform="translate(1069.95 360)">Clinical evidence quality evaluation , grading , recommendation</text><text font-family="SimSun,SimSun_MSFontService,Arial" font-weight="400" font-size="12" transform="translate(620.058 641)">診斷試驗的系統評價</text><text font-family="Times New Roman,Times New Roman_MSFontService,Arial" font-weight="400" font-size="9" transform="translate(602.392 659)">systematic review , </text><text font-family="Times New Roman,Times New Roman_MSFontService,Arial" font-weight="400" font-size="9" transform="translate(677.058 659)">meta analysis</text><text font-family="SimSun,SimSun_MSFontService,Arial" font-weight="400" font-size="12" transform="translate(1239.2 552)">臨床決策分析</text><text font-family="Times New Roman,Times New Roman_MSFontService,Arial" font-weight="400" font-size="9" transform="translate(1188.53 570)">Clinical decision analysis , CDA</text><path d="M1321.5 321.5C1328.96 321.5 1335 322.507 1335 323.75L1335 447.75C1335 448.993 1341.04 450 1348.5 450 1341.04 450 1335 451.007 1335 452.25L1335 576.25C1335 577.493 1328.96 578.5 1321.5 578.5" stroke="#FF00FF" stroke-width="0.933333" stroke-miterlimit="8" stroke-opacity="0.301961" fill="none" fill-rule="evenodd"/><text font-family="SimSun,SimSun_MSFontService,Arial" font-weight="400" font-size="12" transform="translate(1358.03 456)">診斷試驗的應用</text><path d="M-97.5001 610.5C-90.0442 610.5-84 611.507-84 612.75L-84 643.25C-84 644.493-77.9558 645.5-70.5 645.5-77.9558 645.5-84 646.507-84 647.75L-84 678.25C-84 679.493-90.0442 680.5-97.5001 680.5" stroke="#FF00FF" stroke-width="0.933333" stroke-miterlimit="8" stroke-opacity="0.301961" fill="none" fill-rule="evenodd"/><text font-family="SimSun,SimSun_MSFontService,Arial" font-weight="400" font-size="12" transform="translate(-323.411 673)">基於</text><text font-family="SimSun,SimSun_MSFontService,Arial" font-weight="400" font-size="12" transform="translate(-299.411 673)">隨機採樣</text><text font-family="SimSun,SimSun_MSFontService,Arial" font-weight="400" font-size="12" transform="translate(-251.411 673)">的計算機仿真</text><text font-family="Times New Roman,Times New Roman_MSFontService,Arial" font-weight="400" font-size="9" transform="translate(-177.077 673)">( Simulation )</text><text font-family="SimSun,SimSun_MSFontService,Arial" font-weight="400" font-size="12" transform="translate(-122.411 673)">分析</text><text font-family="SimSun,SimSun_MSFontService,Arial" font-weight="400" font-size="12" transform="translate(608.104 699)">受衆檢測值的</text><text font-family="SimSun,SimSun_MSFontService,Arial" font-weight="400" font-size="12" transform="translate(680.104 699)">分布特徵</text><text font-family="Times New Roman,Times New Roman_MSFontService,Arial" font-weight="400" font-size="9" transform="translate(603.771 717)">True value statistical distribution</text><path d="M738.5 683.5C745.956 683.5 752 684.507 752 685.75L752 716.25C752 717.493 758.044 718.5 765.5 718.5 758.044 718.5 752 719.507 752 720.75L752 751.25C752 752.493 745.956 753.5 738.5 753.5" stroke="#FF00FF" stroke-width="0.933333" stroke-miterlimit="8" stroke-opacity="0.301961" fill="none" fill-rule="evenodd"/><text font-family="SimSun,SimSun_MSFontService,Arial" font-weight="400" font-size="12" transform="translate(407.321 745)">基於</text><text font-family="SimSun,SimSun_MSFontService,Arial" font-weight="400" font-size="12" transform="translate(431.321 745)">隨機採樣和無記憶隨機過程</text><text font-family="SimSun,SimSun_MSFontService,Arial" font-weight="400" font-size="12" transform="translate(575.321 745)">的計算機仿真</text><text font-family="Times New Roman,Times New Roman_MSFontService,Arial" font-weight="400" font-size="9" transform="translate(649.654 745)">( Simulation ) </text><text font-family="SimSun,SimSun_MSFontService,Arial" font-weight="400" font-size="12" transform="translate(704.321 745)">分析</text><path d="M701.5 490.033 772.87 490.033 772.87 490.967 701.5 490.967ZM772.87 490.5 767.537 487.833 780.87 490.5 767.537 493.167Z" fill="#FF00FF" fill-opacity="0.301961"/><path d="M758.5 620.5C765.956 620.5 772 621.507 772 622.75L772 667.25C772 668.493 778.044 669.5 785.5 669.5 778.044 669.5 772 670.507 772 671.75L772 716.25C772 717.493 765.956 718.5 758.5 718.5" stroke="#FF00FF" stroke-width="0.933333" stroke-miterlimit="8" stroke-opacity="0.301961" fill="none" fill-rule="evenodd"/><path d="M430.5 491.033 509.429 491.033 509.429 491.967 430.5 491.967ZM509.429 491.5 504.096 488.833 517.429 491.5 504.096 494.167Z" fill="#FF00FF" fill-opacity="0.301961"/><text font-family="SimSun,SimSun_MSFontService,Arial" font-weight="400" font-size="12" transform="translate(668.736 272)">生存品質調查</text><text font-family="Times New Roman,Times New Roman_MSFontService,Arial" font-weight="400" font-size="9" transform="translate(655.569 290)">Quality of Life Survey</text><text font-family="SimSun,SimSun_MSFontService,Arial" font-weight="400" font-size="12" transform="translate(660.736 318)">成本</text><text font-family="STSong,STSong_MSFontService,Arial" font-weight="400" font-size="12" transform="translate(684.736 318)">~</text><text font-family="SimSun,SimSun_MSFontService,Arial" font-weight="400" font-size="12" transform="translate(692.736 318)">效用分析</text><text font-family="Times New Roman,Times New Roman_MSFontService,Arial" font-weight="400" font-size="9" transform="translate(658.402 336)">Cost </text><text font-family="Times New Roman,Times New Roman_MSFontService,Arial" font-weight="400" font-size="9" transform="translate(677.902 336)">-</text><text font-family="Times New Roman,Times New Roman_MSFontService,Arial" font-weight="400" font-size="9" transform="translate(683.402 336)">Utility analysis</text><path d="M751.5 254.5C758.68 254.5 764.5 255.47 764.5 256.667L764.5 295.833C764.5 297.03 770.32 298 777.5 298 770.32 298 764.5 298.97 764.5 300.167L764.5 339.333C764.5 340.53 758.68 341.5 751.5 341.5" stroke="#FF00FF" stroke-width="0.933333" stroke-miterlimit="8" stroke-opacity="0.301961" fill="none" fill-rule="evenodd"/><text font-family="SimSun,SimSun_MSFontService,Arial" font-weight="400" font-size="12" transform="translate(1096.21 437)">決策樹模型</text><text font-family="SimSun,SimSun_MSFontService,Arial" font-weight="400" font-size="12" transform="translate(1072.21 466)">貝葉斯決策模型</text><path d="M1164.5 416.5C1171.96 416.5 1178 417.507 1178 418.75L1178 543.75C1178 544.993 1184.04 546 1191.5 546 1184.04 546 1178 547.007 1178 548.25L1178 673.25C1178 674.493 1171.96 675.5 1164.5 675.5" stroke="#FF00FF" stroke-width="0.933333" stroke-miterlimit="8" stroke-opacity="0.301961" fill="none" fill-rule="evenodd"/><text font-family="SimSun,SimSun_MSFontService,Arial" font-weight="400" font-size="12" transform="translate(1024.21 495)">無記憶隨機過程決策模型</text><text font-family="SimSun,SimSun_MSFontService,Arial" font-weight="400" font-size="12" transform="translate(1096.21 524)">敏感性分析</text><text font-family="SimSun,SimSun_MSFontService,Arial" font-weight="400" font-size="12" transform="translate(1096.21 553)">閾值判別法</text><text font-family="SimSun,SimSun_MSFontService,Arial" font-weight="400" font-size="12" transform="translate(1108.21 582)">典則判別</text><text font-family="SimSun,SimSun_MSFontService,Arial" font-weight="400" font-size="12" transform="translate(1084.21 610)">最大似然判別</text><text font-family="SimSun,SimSun_MSFontService,Arial" font-weight="400" font-size="12" transform="translate(1060.21 638)">邏輯回歸判別模型</text><text font-family="SimSun,SimSun_MSFontService,Arial" font-weight="400" font-size="12" transform="translate(1036.21 668)">比例風險回歸判別模型</text><path d="M938.5 337.033 1055.22 337.033 1055.22 337.967 938.5 337.967ZM1055.22 337.5 1049.89 333.5 1063.22 337.5 1049.89 341.5Z" fill="#FF00FF" fill-opacity="0.301961"/><text font-family="SimSun,SimSun_MSFontService,Arial" font-weight="400" font-size="12" transform="translate(603.093 188)">《</text><text font-family="SimSun,SimSun_MSFontService,Arial" font-weight="400" font-size="12" transform="translate(615.093 188)">英國醫學雜誌</text><text font-family="SimSun,SimSun_MSFontService,Arial" font-weight="400" font-size="12" transform="translate(687.093 188)">》</text><text font-family="SimSun,SimSun_MSFontService,Arial" font-weight="400" font-size="12" transform="translate(699.093 188)">證據推薦分級的評估、制訂、評價標準</text><text font-family="Times New Roman,Times New Roman_MSFontService,Arial" font-weight="400" font-size="9" transform="translate(551.26 206)">The Grades of Recommendation</text><text font-family="SimSun,SimSun_MSFontService,Arial" font-weight="400" font-size="9" transform="translate(673.26 206)">、</text><text font-family="Times New Roman,Times New Roman_MSFontService,Arial" font-weight="400" font-size="9" transform="translate(682.593 206)">Assessment</text><text font-family="SimSun,SimSun_MSFontService,Arial" font-weight="400" font-size="9" transform="translate(726.927 206)">、</text><text font-family="Times New Roman,Times New Roman_MSFontService,Arial" font-weight="400" font-size="9" transform="translate(736.26 206)">Development and Evaluation, GRADE 2014</text><text font-family="SimSun,SimSun_MSFontService,Arial" font-weight="400" font-size="12" transform="translate(603.093 139)">英國</text><text font-family="SimSun,SimSun_MSFontService,Arial" font-weight="400" font-size="12" transform="translate(627.093 139)">牛津</text><text font-family="SimSun,SimSun_MSFontService,Arial" font-weight="400" font-size="12" transform="translate(651.093 139)">大學</text><text font-family="SimSun,SimSun_MSFontService,Arial" font-weight="400" font-size="12" transform="translate(675.093 139)">循證醫學中心臨床研究證據分級與推薦強度</text><text font-family="Times New Roman,Times New Roman_MSFontService,Arial" font-weight="400" font-size="9" transform="translate(621.093 157)">The Oxford Centre for Evidence</text><text font-family="Times New Roman,Times New Roman_MSFontService,Arial" font-weight="400" font-size="9" transform="translate(742.76 157)">-</text><text font-family="Times New Roman,Times New Roman_MSFontService,Arial" font-weight="400" font-size="9" transform="translate(745.927 157)">based Medicine  Levels of Evidence 2001</text><text font-family="SimSun,SimSun_MSFontService,Arial" font-weight="400" font-size="12" transform="translate(-59.3949 -57)">英國倫敦生物醫學研究中心</text><text font-family="SimSun,SimSun_MSFontService,Arial" font-weight="400" font-size="12" transform="translate(84.6051 -57)">《</text><text font-family="SimSun,SimSun_MSFontService,Arial" font-weight="400" font-size="12" transform="translate(96.6051 -57)">醫學研究方法論雜誌</text><text font-family="SimSun,SimSun_MSFontService,Arial" font-weight="400" font-size="12" transform="translate(204.605 -57)">》</text><text font-family="SimSun,SimSun_MSFontService,Arial" font-weight="400" font-size="12" transform="translate(216.605 -57)">診斷性原始研究品質評價清單</text><text font-family="Times New Roman,Times New Roman_MSFontService,Arial" font-weight="400" font-size="9" transform="translate(109.605 -39)">The Standards for Reporting of Diagnostic Accuracy ( STARD ) 2003</text><text font-family="SimSun,SimSun_MSFontService,Arial" font-weight="400" font-size="12" transform="translate(60.3478 -104)">《</text><text font-family="SimSun,SimSun_MSFontService,Arial" font-weight="400" font-size="12" transform="translate(72.3478 -104)">荷蘭醫學雜誌</text><text font-family="SimSun,SimSun_MSFontService,Arial" font-weight="400" font-size="12" transform="translate(144.348 -104)">》</text><text font-family="SimSun,SimSun_MSFontService,Arial" font-weight="400" font-size="12" transform="translate(156.348 -104)">診斷準確性研究報告</text><text font-family="SimSun,SimSun_MSFontService,Arial" font-weight="400" font-size="12" transform="translate(264.348 -104)">品質評價</text><text font-family="SimSun,SimSun_MSFontService,Arial" font-weight="400" font-size="12" transform="translate(312.348 -104)">的清單</text><text font-family="SimSun,SimSun_MSFontService,Arial" font-weight="400" font-size="12" transform="translate(348.348 -104)">聲明</text><text font-family="Times New Roman,Times New Roman_MSFontService,Arial" font-weight="400" font-size="9" transform="translate(-131.819 -86)">The development of QUADAS a tool for the quality assessment of studies of diagnostic accuracy included in systematic reviews </text><text font-family="Times New Roman,Times New Roman_MSFontService,Arial" font-weight="400" font-size="9" transform="translate(353.681 -86)">200</text><text font-family="Times New Roman,Times New Roman_MSFontService,Arial" font-weight="400" font-size="9" transform="translate(367.681 -86)">6</text><path d="M382.5-123.5C389.956-123.5 396-122.493 396-121.25L396-79.25C396-78.0074 402.044-77.0001 409.5-77.0001 402.044-77.0001 396-75.9927 396-74.7501L396-32.75C396-31.5074 389.956-30.5001 382.5-30.5001" stroke="#FF00FF" stroke-width="0.933333" stroke-miterlimit="8" stroke-opacity="0.301961" fill="none" fill-rule="evenodd"/><text font-family="SimSun,SimSun_MSFontService,Arial" font-weight="400" font-size="12" transform="translate(421.984 -73)">診斷準確性研究</text><text font-family="Times New Roman,Times New Roman_MSFontService,Arial" font-weight="400" font-size="9" transform="translate(508.317 -73)">( Studies of accuracy ) </text><text font-family="SimSun,SimSun_MSFontService,Arial" font-weight="400" font-size="12" transform="translate(595.151 -73)">品質評價</text><text font-family="SimSun,SimSun_MSFontService,Arial" font-weight="400" font-size="12" transform="translate(139.553 48)">英國倫敦生物醫學研究中心</text><text font-family="SimSun,SimSun_MSFontService,Arial" font-weight="400" font-size="12" transform="translate(283.553 48)">《</text><text font-family="SimSun,SimSun_MSFontService,Arial" font-weight="400" font-size="12" transform="translate(295.553 48)">醫學研究方法論雜誌</text><text font-family="SimSun,SimSun_MSFontService,Arial" font-weight="400" font-size="12" transform="translate(403.553 48)">》</text><text font-family="SimSun,SimSun_MSFontService,Arial" font-weight="400" font-size="12" transform="translate(415.553 48)">系統評價研究設計的方法學報告規範的量表</text><text font-family="Times New Roman,Times New Roman_MSFontService,Arial" font-weight="400" font-size="9" transform="translate(320.053 66)">Development of AMSTAR: A Measurement Tool to Assess Systematic Reviews 2007</text><text font-family="SimSun,SimSun_MSFontService,Arial" font-weight="400" font-size="12" transform="translate(367.553 1)">《</text><text font-family="SimSun,SimSun_MSFontService,Arial" font-weight="400" font-size="12" transform="translate(379.553 1)">英國醫學雜誌</text><text font-family="SimSun,SimSun_MSFontService,Arial" font-weight="400" font-size="12" transform="translate(451.553 1)">》</text><text font-family="SimSun,SimSun_MSFontService,Arial" font-weight="400" font-size="12" transform="translate(463.553 1)">系統評價</text><text font-family="SimSun,SimSun_MSFontService,Arial" font-weight="400" font-size="12" transform="translate(511.553 1)">研究</text><text font-family="SimSun,SimSun_MSFontService,Arial" font-weight="400" font-size="12" transform="translate(535.553 1)">優先報告條目</text><text font-family="SimSun,SimSun_MSFontService,Arial" font-weight="400" font-size="12" transform="translate(607.553 1)">的</text><text font-family="SimSun,SimSun_MSFontService,Arial" font-weight="400" font-size="12" transform="translate(619.553 1)">聲明</text><text font-family="Times New Roman,Times New Roman_MSFontService,Arial" font-weight="400" font-size="9" transform="translate(277.386 19)">Preferred reporting items for systematic reviews and meta</text><text font-family="Times New Roman,Times New Roman_MSFontService,Arial" font-weight="400" font-size="9" transform="translate(495.553 19)">-</text><text font-family="Times New Roman,Times New Roman_MSFontService,Arial" font-weight="400" font-size="9" transform="translate(498.72 19)">analyses: the PRISMA statement 2009</text><path d="M653.5-93.5001C660.956-93.5001 667-92.4927 667-91.2501L667-11.7499C667-10.5073 673.044-9.50001 680.5-9.50001 673.044-9.50001 667-8.49268 667-7.25008L667 72.2501C667 73.4927 660.956 74.5 653.5 74.5" stroke="#FF00FF" stroke-width="0.933333" stroke-miterlimit="8" stroke-opacity="0.301961" fill="none" fill-rule="evenodd"/><text font-family="SimSun,SimSun_MSFontService,Arial" font-weight="400" font-size="12" transform="translate(700.093 -3)">系統評價研究</text><text font-family="Times New Roman,Times New Roman_MSFontService,Arial" font-weight="400" font-size="9" transform="translate(774.426 -3)">( systematic review ) </text><text font-family="SimSun,SimSun_MSFontService,Arial" font-weight="400" font-size="12" transform="translate(855.426 -3)">報告規範</text><path d="M48.5001 846.167 229.476 846.167 229.476 846.833 48.5001 846.833ZM229.476 846.5 224.143 842.5 237.476 846.5 224.143 850.5Z" fill="#4472C4"/><text fill="#4D4D4D" font-family="SimSun,SimSun_MSFontService,Arial" font-weight="400" font-size="15" transform="translate(-20.6686 855)">醫療器械</text><path d="M316.5 846.167 497.476 846.167 497.476 846.833 316.5 846.833ZM497.476 846.5 492.143 842.5 505.476 846.5 492.143 850.5Z" fill="#4472C4"/><text fill="#4D4D4D" font-family="SimSun,SimSun_MSFontService,Arial" font-weight="400" font-size="15" transform="translate(247.542 855)">運行結果</text><path d="M585.5 846.167 766.476 846.167 766.476 846.833 585.5 846.833ZM766.476 846.5 761.143 842.5 774.476 846.5 761.143 850.5Z" fill="#4472C4"/><text fill="#4D4D4D" font-family="SimSun,SimSun_MSFontService,Arial" font-weight="400" font-size="15" transform="translate(515.682 854)">特定事件</text><path d="M853.5 846.167 856.167 846.167 856.167 846.833 853.5 846.833ZM858.167 846.167 860.833 846.167 860.833 846.833 858.167 846.833ZM862.833 846.167 865.5 846.167 865.5 846.833 862.833 846.833ZM867.5 846.167 870.167 846.167 870.167 846.833 867.5 846.833ZM872.167 846.167 874.833 846.167 874.833 846.833 872.167 846.833ZM876.833 846.167 879.5 846.167 879.5 846.833 876.833 846.833ZM881.5 846.167 884.167 846.167 884.167 846.833 881.5 846.833ZM886.167 846.167 888.833 846.167 888.833 846.833 886.167 846.833ZM890.833 846.167 893.5 846.167 893.5 846.833 890.833 846.833ZM895.5 846.167 898.167 846.167 898.167 846.833 895.5 846.833ZM900.167 846.167 902.833 846.167 902.833 846.833 900.167 846.833ZM904.833 846.167 907.5 846.167 907.5 846.833 904.833 846.833ZM909.5 846.167 912.167 846.167 912.167 846.833 909.5 846.833ZM914.167 846.167 916.833 846.167 916.833 846.833 914.167 846.833ZM918.833 846.167 921.5 846.167 921.5 846.833 918.833 846.833ZM923.5 846.167 926.167 846.167 926.167 846.833 923.5 846.833ZM928.167 846.167 930.833 846.167 930.833 846.833 928.167 846.833ZM932.833 846.167 935.5 846.167 935.5 846.833 932.833 846.833ZM937.5 846.167 940.167 846.167 940.167 846.833 937.5 846.833ZM942.167 846.167 944.833 846.167 944.833 846.833 942.167 846.833ZM946.833 846.167 949.5 846.167 949.5 846.833 946.833 846.833ZM951.5 846.167 954.167 846.167 954.167 846.833 951.5 846.833ZM956.167 846.167 958.833 846.167 958.833 846.833 956.167 846.833ZM960.833 846.167 963.5 846.167 963.5 846.833 960.833 846.833ZM965.5 846.167 968.167 846.167 968.167 846.833 965.5 846.833ZM970.167 846.167 972.833 846.167 972.833 846.833 970.167 846.833ZM974.833 846.167 977.5 846.167 977.5 846.833 974.833 846.833ZM979.5 846.167 982.167 846.167 982.167 846.833 979.5 846.833ZM984.167 846.167 986.833 846.167 986.833 846.833 984.167 846.833ZM988.833 846.167 991.5 846.167 991.5 846.833 988.833 846.833ZM993.5 846.167 996.167 846.167 996.167 846.833 993.5 846.833ZM998.167 846.167 1000.83 846.167 1000.83 846.833 998.167 846.833ZM1002.83 846.167 1005.5 846.167 1005.5 846.833 1002.83 846.833ZM1007.5 846.167 1010.17 846.167 1010.17 846.833 1007.5 846.833ZM1012.17 846.167 1014.83 846.167 1014.83 846.833 1012.17 846.833ZM1016.83 846.167 1019.5 846.167 1019.5 846.833 1016.83 846.833ZM1021.5 846.167 1024.17 846.167 1024.17 846.833 1021.5 846.833ZM1026.17 846.167 1028.83 846.167 1028.83 846.833 1026.17 846.833ZM1030.83 846.167 1033.5 846.167 1033.5 846.833 1030.83 846.833ZM1034.48 846.5 1029.14 842.5 1042.48 846.5 1029.14 850.5Z" fill="#4472C4"/><text fill="#4D4D4D" font-family="SimSun,SimSun_MSFontService,Arial" font-weight="400" font-size="15" transform="translate(783.893 854)">特定現象</text><text fill="#4D4D4D" font-family="SimSun,SimSun_MSFontService,Arial" font-weight="400" font-size="15" transform="translate(1052.03 854)">用戶價值</text></g></svg>