<svg width="990" height="470" xmlns="http://www.w3.org/2000/svg" xmlns:xlink="http://www.w3.org/1999/xlink" xml:space="preserve" overflow="hidden"><g transform="translate(-107 -100)"><text font-family="PMingLiU,PMingLiU_MSFontService,Arial" font-weight="400" font-size="13" transform="translate(198.732 189)">特定臨床情況下的質量規範</text><text font-family="PMingLiU,PMingLiU_MSFontService,Arial" font-weight="400" font-size="13" transform="translate(185.398 220)">基於生物變異的一般質量規範</text><text font-family="PMingLiU,PMingLiU_MSFontService,Arial" font-weight="400" font-size="13" transform="translate(185.398 251)">基於醫療觀點的一般質量規範</text><text font-family="PMingLiU,PMingLiU_MSFontService,Arial" font-weight="400" font-size="13" transform="translate(212.207 282)">國家或國際專家小組指南</text><text font-family="PMingLiU,PMingLiU_MSFontService,Arial" font-weight="400" font-size="13" transform="translate(172.316 313)">專家個人或學會工作組專家指南</text><text font-family="PMingLiU,PMingLiU_MSFontService,Arial" font-weight="400" font-size="13" transform="translate(198.91 343)">由法規機構制定的質量規範</text><text font-family="PMingLiU,PMingLiU_MSFontService,Arial" font-weight="400" font-size="13" transform="translate(132.259 374)">由室間質量評價組織者制定的質量規範</text><text font-family="PMingLiU,PMingLiU_MSFontService,Arial" font-weight="400" font-size="13" transform="translate(118.962 405)">已發表的能力驗證和室間質量評價的數據</text><text font-family="PMingLiU,PMingLiU_MSFontService,Arial" font-weight="400" font-size="13" transform="translate(225.289 439)">已發表的特定的方法學</text><path d="M368.5 166.5C375.128 166.5 380.5 167.395 380.5 168.5L380.5 306.5C380.5 307.605 385.873 308.5 392.5 308.5 385.873 308.5 380.5 309.395 380.5 310.5L380.5 448.5C380.5 449.605 375.128 450.5 368.5 450.5" stroke="#FF00FF" stroke-width="0.933333" stroke-miterlimit="8" stroke-opacity="0.301961" fill="none" fill-rule="evenodd"/><path d="M369.5 500.5 393.311 500.5" stroke="#FF00FF" stroke-width="0.933333" stroke-miterlimit="8" stroke-opacity="0.301961" fill="none" fill-rule="evenodd"/><text font-family="DengXian,DengXian_MSFontService,Arial" font-weight="400" font-size="13" transform="translate(225.289 506)">檢驗系</text><text font-family="DengXian,DengXian_MSFontService,Arial" font-weight="400" font-size="13" transform="translate(265.289 506)">統</text><text font-family="DengXian,DengXian_MSFontService,Arial" font-weight="400" font-size="13" transform="translate(278.622 506)">測量</text><text font-family="DengXian,DengXian_MSFontService,Arial" font-weight="400" font-size="13" transform="translate(305.289 506)">性能</text><text font-family="DengXian,DengXian_MSFontService,Arial" font-weight="400" font-size="13" transform="translate(331.955 506)">評估</text><path d="M392.5 308.5C399.127 308.5 404.5 309.395 404.5 310.5L404.5 402.5C404.5 403.605 409.873 404.5 416.5 404.5 409.873 404.5 404.5 405.396 404.5 406.5L404.5 498.5C404.5 499.605 399.127 500.5 392.5 500.5" stroke="#FF00FF" stroke-width="0.933333" stroke-miterlimit="8" stroke-opacity="0.301961" fill="none" fill-rule="evenodd"/><text font-family="DengXian,DengXian_MSFontService,Arial" font-weight="400" font-size="13" transform="translate(537.234 410)">導出醫學上重要的</text><text font-family="PMingLiU,PMingLiU_MSFontService,Arial" font-weight="400" font-size="13" transform="translate(643.901 410)">誤差</text><path d="M416.5 404.033 518.106 404.033 518.106 404.967 416.5 404.967ZM518.106 404.5 512.773 400.5 526.106 404.5 512.773 408.5Z" fill="#FF00FF" fill-opacity="0.301961"/><text font-family="PMingLiU,PMingLiU_MSFontService,Arial" font-weight="400" font-size="13" transform="translate(577.292 376)">操作過程規範圖</text><text font-family="DengXian,DengXian_MSFontService,Arial" font-weight="400" font-size="13" transform="translate(604.052 342)">功效函數圖</text><text font-family="DengXian,DengXian_MSFontService,Arial" font-weight="400" font-size="13" transform="translate(443.99 308)">在兩次假失控之間的平均運</text><text font-family="DengXian,DengXian_MSFontService,Arial" font-weight="400" font-size="13" transform="translate(603.99 308)">行</text><text font-family="DengXian,DengXian_MSFontService,Arial" font-weight="400" font-size="13" transform="translate(617.323 308)">測量</text><text font-family="DengXian,DengXian_MSFontService,Arial" font-weight="400" font-size="13" transform="translate(643.99 308)">批</text><text font-family="DengXian,DengXian_MSFontService,Arial" font-weight="400" font-size="13" transform="translate(657.323 308)">數</text><path d="M680.5 218.5C687.128 218.5 692.5 219.395 692.5 220.5L692.5 318C692.5 319.105 697.873 320 704.5 320 697.873 320 692.5 320.895 692.5 322L692.5 419.5C692.5 420.605 687.128 421.5 680.5 421.5" stroke="#FF00FF" stroke-width="0.933333" stroke-miterlimit="8" stroke-opacity="0.301961" fill="none" fill-rule="evenodd"/><text font-family="DengXian,DengXian_MSFontService,Arial" font-weight="400" font-size="13" transform="translate(751.765 289)">確定控制方案：</text><text font-family="Times New Roman,Times New Roman_MSFontService,Arial" font-weight="400" font-size="13" transform="translate(751.765 313)">-</text><text font-family="DengXian,DengXian_MSFontService,Arial" font-weight="400" font-size="13" transform="translate(759.598 313)">每</text><text font-family="DengXian,DengXian_MSFontService,Arial" font-weight="400" font-size="13" transform="translate(772.931 313)">個</text><text font-family="DengXian,DengXian_MSFontService,Arial" font-weight="400" font-size="13" transform="translate(786.265 313)">檢測</text><text font-family="DengXian,DengXian_MSFontService,Arial" font-weight="400" font-size="13" transform="translate(812.931 313)">批</text><text font-family="DengXian,DengXian_MSFontService,Arial" font-weight="400" font-size="13" transform="translate(826.265 313)">質</text><text font-family="DengXian,DengXian_MSFontService,Arial" font-weight="400" font-size="13" transform="translate(839.598 313)">控</text><text font-family="DengXian,DengXian_MSFontService,Arial" font-weight="400" font-size="13" transform="translate(852.931 313)">品</text><text font-family="DengXian,DengXian_MSFontService,Arial" font-weight="400" font-size="13" transform="translate(866.265 313)">測定數</text><text font-family="DengXian,DengXian_MSFontService,Arial" font-weight="400" font-size="13" transform="translate(906.265 313)">量</text><text font-family="Times New Roman,Times New Roman_MSFontService,Arial" font-weight="400" font-size="13" transform="translate(751.765 337)">-</text><text font-family="DengXian,DengXian_MSFontService,Arial" font-weight="400" font-size="13" transform="translate(759.598 337)">控制規則</text><text font-family="Times New Roman,Times New Roman_MSFontService,Arial" font-weight="400" font-size="13" transform="translate(751.765 361)">-</text><text font-family="DengXian,DengXian_MSFontService,Arial" font-weight="400" font-size="13" transform="translate(759.598 361)">最佳</text><text font-family="DengXian,DengXian_MSFontService,Arial" font-weight="400" font-size="13" transform="translate(786.265 361)">檢測</text><text font-family="DengXian,DengXian_MSFontService,Arial" font-weight="400" font-size="13" transform="translate(812.931 361)">批</text><text font-family="DengXian,DengXian_MSFontService,Arial" font-weight="400" font-size="13" transform="translate(826.265 361)">長度</text><path d="M704.5 319.033 734.295 319.033 734.295 319.967 704.5 319.967ZM734.295 319.5 728.962 315.5 742.295 319.5 728.962 323.5Z" fill="#FF00FF" fill-opacity="0.301961"/><path d="M932.5 319.033 962.295 319.033 962.295 319.967 932.5 319.967ZM962.295 319.5 956.962 315.5 970.295 319.5 956.962 323.5Z" fill="#FF00FF" fill-opacity="0.301961"/><text font-family="DengXian,DengXian_MSFontService,Arial" font-weight="400" font-size="13" transform="translate(497.344 274)">誤差檢出的平均運</text><text font-family="DengXian,DengXian_MSFontService,Arial" font-weight="400" font-size="13" transform="translate(604.01 274)">行</text><text font-family="DengXian,DengXian_MSFontService,Arial" font-weight="400" font-size="13" transform="translate(617.344 274)">測量</text><text font-family="DengXian,DengXian_MSFontService,Arial" font-weight="400" font-size="13" transform="translate(644.01 274)">批</text><text font-family="DengXian,DengXian_MSFontService,Arial" font-weight="400" font-size="13" transform="translate(657.344 274)">數</text><text font-family="PMingLiU,PMingLiU_MSFontService,Arial" font-weight="400" font-size="13" transform="translate(510.641 240)">根據過</text><text font-family="PMingLiU,PMingLiU_MSFontService,Arial" font-weight="400" font-size="13" transform="translate(550.641 240)">程能力指數分級</text><text font-family="PMingLiU,PMingLiU_MSFontService,Arial" font-weight="400" font-size="13" transform="translate(643.974 240)">選擇</text><text font-family="DengXian,DengXian_MSFontService,Arial" font-weight="400" font-size="13" transform="translate(978.961 289)">估</text><text font-family="DengXian,DengXian_MSFontService,Arial" font-weight="400" font-size="13" transform="translate(992.294 289)">計</text><text font-family="DengXian,DengXian_MSFontService,Arial" font-weight="400" font-size="13" transform="translate(1005.63 289)">檢測</text><text font-family="DengXian,DengXian_MSFontService,Arial" font-weight="400" font-size="13" transform="translate(1032.29 289)">過</text><text font-family="DengXian,DengXian_MSFontService,Arial" font-weight="400" font-size="13" transform="translate(1045.63 289)">程的：</text><text font-family="Times New Roman,Times New Roman_MSFontService,Arial" font-weight="400" font-size="13" transform="translate(978.961 313)">-</text><text font-family="DengXian,DengXian_MSFontService,Arial" font-weight="400" font-size="13" transform="translate(986.794 313)">品質</text><text font-family="Times New Roman,Times New Roman_MSFontService,Arial" font-weight="400" font-size="13" transform="translate(978.961 337)">-</text><text font-family="DengXian,DengXian_MSFontService,Arial" font-weight="400" font-size="13" transform="translate(986.794 337)">生產率</text><text font-family="Times New Roman,Times New Roman_MSFontService,Arial" font-weight="400" font-size="13" transform="translate(978.961 361)">-</text><text font-family="DengXian,DengXian_MSFontService,Arial" font-weight="400" font-size="13" transform="translate(986.794 361)">風險</text><path d="M1033.5 428.5 1033.5 552.469" stroke="#FF00FF" stroke-width="0.933333" stroke-miterlimit="8" stroke-opacity="0.301961" fill="none" fill-rule="evenodd"/><path d="M806.5 551.5 1033.27 552.843" stroke="#FF00FF" stroke-width="0.933333" stroke-miterlimit="8" stroke-opacity="0.301961" fill="none" fill-rule="evenodd"/><text font-family="DengXian,DengXian_MSFontService,Arial" font-weight="400" font-size="15" transform="translate(672.659 557)">重新選擇檢驗系統</text><path d="M291.5 549.5 657.358 550.769" stroke="#FF00FF" stroke-width="0.933333" stroke-miterlimit="8" stroke-opacity="0.301961" fill="none" fill-rule="evenodd"/><path d="M0.479788 7.99922 0.51874 31.7473-0.414593 31.7488-0.453544 8.00076ZM0.0131217 7.99999-3.97813 13.3399 0 0 4.02186 13.3268Z" fill="#FF00FF" fill-opacity="0.301961" transform="matrix(-1 0 0 1 291.552 517.5)"/><path d="M1096.5 373.5C1096.5 388.964 1094.41 401.5 1091.83 401.5L1037.67 401.5C1035.09 401.5 1033 414.036 1033 429.5 1033 414.036 1030.91 401.5 1028.33 401.5L974.167 401.5C971.589 401.5 969.5 388.964 969.5 373.5" stroke="#FF00FF" stroke-width="0.933333" stroke-miterlimit="8" stroke-opacity="0.301961" fill="none" fill-rule="evenodd"/><text font-family="DengXian,DengXian_MSFontService,Arial" font-weight="400" font-size="13" transform="translate(1032.11 455)">不</text><text font-family="DengXian,DengXian_MSFontService,Arial" font-weight="400" font-size="13" transform="translate(1032.11 471)">滿</text><text font-family="DengXian,DengXian_MSFontService,Arial" font-weight="400" font-size="13" transform="translate(1032.11 487)">意</text><path d="M0.466667-0.000242627 0.514581 92.1572-0.418752 92.1577-0.466667 0.000242627ZM0.0479142 92.1575 4.04514 86.8221 0.0520735 100.157-3.95486 86.8262Z" fill="#FF00FF" fill-opacity="0.301961" transform="matrix(-1 0 0 1 591.552 117.5)"/><text font-family="DengXian,DengXian_MSFontService,Arial" font-weight="400" font-size="13" transform="translate(198.91 123)">檢驗系統誤差發</text><text font-family="DengXian,DengXian_MSFontService,Arial" font-weight="400" font-size="13" transform="translate(292.243 123)">生分</text><text font-family="DengXian,DengXian_MSFontService,Arial" font-weight="400" font-size="13" transform="translate(318.91 123)">布</text><text font-family="DengXian,DengXian_MSFontService,Arial" font-weight="400" font-size="13" transform="translate(332.243 123)">特</text><text font-family="DengXian,DengXian_MSFontService,Arial" font-weight="400" font-size="13" transform="translate(345.577 123)">徵</text><path d="M369.5 117.5 591.736 117.5" stroke="#FF00FF" stroke-width="0.933333" stroke-miterlimit="8" stroke-opacity="0.301961" fill="none" fill-rule="evenodd"/></g></svg>