<svg width="1530" height="786" xmlns="http://www.w3.org/2000/svg" xmlns:xlink="http://www.w3.org/1999/xlink" xml:space="preserve" overflow="hidden"><g transform="translate(167 -28)"><text font-family="SimSun,SimSun_MSFontService,Arial" font-weight="400" font-size="12" transform="translate(-18.7596 147)">特定臨床情況下的質量規範</text><text font-family="SimSun,SimSun_MSFontService,Arial" font-weight="400" font-size="12" transform="translate(-30.7573 174)">基於生物變異的一般質量規範</text><text font-family="SimSun,SimSun_MSFontService,Arial" font-weight="400" font-size="12" transform="translate(-30.7573 201)">基於醫療觀點的一般質量規範</text><text font-family="SimSun,SimSun_MSFontService,Arial" font-weight="400" font-size="12" transform="translate(-6.64115 228)">國家或國際專家小組指南</text><text font-family="SimSun,SimSun_MSFontService,Arial" font-weight="400" font-size="12" transform="translate(-42.6594 254)">專家個人或學會工作組專家指南</text><text font-family="SimSun,SimSun_MSFontService,Arial" font-weight="400" font-size="12" transform="translate(-18.5917 281)">由法規機構制定的質量規範</text><text font-family="SimSun,SimSun_MSFontService,Arial" font-weight="400" font-size="12" transform="translate(-78.511 308)">由室間質量評價組織者制定的質量規範</text><text font-family="SimSun,SimSun_MSFontService,Arial" font-weight="400" font-size="12" transform="translate(-90.6282 335)">已發表的能力驗證和室間質量評價的數據</text><text font-family="SimSun,SimSun_MSFontService,Arial" font-weight="400" font-size="12" transform="translate(5.261 362)">已發表的特定的方法學</text><path d="M135.5 126.5C142.68 126.5 148.5 127.47 148.5 128.667L148.5 245.334C148.5 246.53 154.321 247.5 161.5 247.5 154.321 247.5 148.5 248.47 148.5 249.667L148.5 366.334C148.5 367.53 142.68 368.5 135.5 368.5" stroke="#FF00FF" stroke-width="0.933333" stroke-miterlimit="8" stroke-opacity="0.301961" fill="none" fill-rule="evenodd"/><text font-family="SimSun,SimSun_MSFontService,Arial" font-weight="400" font-size="12" transform="translate(171.932 254)">醫學檢驗品質目標</text><text font-family="SimSun,SimSun_MSFontService,Arial" font-weight="400" font-size="12" transform="translate(-6.75958 402)">檢驗系統的</text><text font-family="SimSun,SimSun_MSFontService,Arial" font-weight="400" font-size="12" transform="translate(53.2404 402)">刻度變差</text><text font-family="SimSun,SimSun_MSFontService,Arial" font-weight="400" font-size="12" transform="translate(101.24 402)">估計</text><text font-family="SimSun,SimSun_MSFontService,Arial" font-weight="400" font-size="12" transform="translate(-6.74808 429)">檢驗系統的</text><text font-family="SimSun,SimSun_MSFontService,Arial" font-weight="400" font-size="12" transform="translate(53.2519 429)">位置變差</text><text font-family="SimSun,SimSun_MSFontService,Arial" font-weight="400" font-size="12" transform="translate(101.252 429)">估計</text><text font-family="SimSun,SimSun_MSFontService,Arial" font-weight="400" font-size="12" transform="translate(-18.8655 455)">檢驗系統的</text><text font-family="SimSun,SimSun_MSFontService,Arial" font-weight="400" font-size="12" transform="translate(41.1345 455)">抗干擾能力</text><text font-family="SimSun,SimSun_MSFontService,Arial" font-weight="400" font-size="12" transform="translate(101.135 455)">估計</text><text font-family="SimSun,SimSun_MSFontService,Arial" font-weight="400" font-size="12" transform="translate(5.47601 482)">檢驗系統的</text><text font-family="SimSun,SimSun_MSFontService,Arial" font-weight="400" font-size="12" transform="translate(65.476 482)">檢出限</text><text font-family="SimSun,SimSun_MSFontService,Arial" font-weight="400" font-size="12" transform="translate(101.476 482)">估計</text><text font-family="SimSun,SimSun_MSFontService,Arial" font-weight="400" font-size="12" transform="translate(5.47601 509)">檢驗系統的</text><text font-family="SimSun,SimSun_MSFontService,Arial" font-weight="400" font-size="12" transform="translate(65.476 509)">穩定性</text><text font-family="SimSun,SimSun_MSFontService,Arial" font-weight="400" font-size="12" transform="translate(101.476 509)">估計</text><text font-family="SimSun,SimSun_MSFontService,Arial" font-weight="400" font-size="12" transform="translate(-66.5604 536)">檢驗系統量值傳遞測量不確定度估計</text><path d="M135.5 381.5C142.68 381.5 148.5 382.47 148.5 383.667L148.5 460.333C148.5 461.53 154.32 462.5 161.5 462.5 154.32 462.5 148.5 463.47 148.5 464.667L148.5 541.333C148.5 542.53 142.68 543.5 135.5 543.5" stroke="#FF00FF" stroke-width="0.933333" stroke-miterlimit="8" stroke-opacity="0.301961" fill="none" fill-rule="evenodd"/><text font-family="SimSun,SimSun_MSFontService,Arial" font-weight="400" font-size="12" transform="translate(172.062 468)">檢驗系統測量性能評估</text><path d="M302.5 233.5C309.956 233.5 316 234.507 316 235.75L316 352.75C316 353.993 322.044 355 329.5 355 322.044 355 316 356.007 316 357.25L316 474.25C316 475.493 309.956 476.5 302.5 476.5" stroke="#FF00FF" stroke-width="0.933333" stroke-miterlimit="8" stroke-opacity="0.301961" fill="none" fill-rule="evenodd"/><text font-family="SimSun,SimSun_MSFontService,Arial" font-weight="400" font-size="12" transform="translate(339.309 360)">醫學上重要的誤差</text><text font-family="SimSun,SimSun_MSFontService,Arial" font-weight="400" font-size="12" transform="translate(318.155 689)">過程能力指數分級</text><text font-family="SimSun,SimSun_MSFontService,Arial" font-weight="400" font-size="12" transform="translate(77.1385 610)">誤差檢出的平均運行測量批數</text><path d="M0 0C7.45586 0 13.5 1.00732 13.5 2.24992L13.5 25.7501C13.5 26.9927 19.5442 28 27.0001 28 19.5442 28 13.5 29.0073 13.5 30.2499L13.5 53.7501C13.5 54.9927 7.45586 56 2.67358e-15 56" stroke="#FF00FF" stroke-width="0.933333" stroke-miterlimit="8" stroke-opacity="0.301961" fill="none" fill-rule="evenodd" transform="matrix(-1 0 0 1 68.5001 589.5)"/><text font-family="SimSun,SimSun_MSFontService,Arial" font-weight="400" font-size="12" transform="translate(-132.776 609)">檢驗系統誤差發生分布特徵</text><text font-family="SimSun,SimSun_MSFontService,Arial" font-weight="400" font-size="12" transform="translate(77.1385 638)">兩次假失控之間的平均運行測量批數</text><path d="M275.5 589.5C282.956 589.5 289 590.507 289 591.75L289 615.25C289 616.493 295.044 617.5 302.5 617.5 295.044 617.5 289 618.507 289 619.75L289 643.25C289 644.493 282.956 645.5 275.5 645.5" stroke="#FF00FF" stroke-width="0.933333" stroke-miterlimit="8" stroke-opacity="0.301961" fill="none" fill-rule="evenodd"/><text font-family="SimSun,SimSun_MSFontService,Arial" font-weight="400" font-size="12" transform="translate(328.978 609)">功效函數圖</text><path d="M0 0C7.45586 0 13.5 1.00732 13.5 2.24992L13.5 25.7501C13.5 26.9927 19.5442 28 27.0001 28 19.5442 28 13.5 29.0073 13.5 30.2499L13.5 53.7501C13.5 54.9927 7.45586 56 2.67358e-15 56" stroke="#FF00FF" stroke-width="0.933333" stroke-miterlimit="8" stroke-opacity="0.301961" fill="none" fill-rule="evenodd" transform="matrix(-1 0 0 1 320.5 589.5)"/><text font-family="SimSun,SimSun_MSFontService,Arial" font-weight="400" font-size="12" transform="translate(328.979 638)">操作過程規範圖</text><path d="M419.5 588.5C426.68 588.5 432.5 589.47 432.5 590.667L432.5 640.333C432.5 641.53 438.32 642.5 445.5 642.5 438.32 642.5 432.5 643.47 432.5 644.667L432.5 694.333C432.5 695.53 426.68 696.5 419.5 696.5" stroke="#FF00FF" stroke-width="0.933333" stroke-miterlimit="8" stroke-opacity="0.301961" fill="none" fill-rule="evenodd"/><path d="M445.5 339.5C452.68 339.5 458.5 340.47 458.5 341.667L458.5 488.834C458.5 490.03 464.321 491 471.5 491 464.321 491 458.5 491.97 458.5 493.167L458.5 640.334C458.5 641.53 452.68 642.5 445.5 642.5" stroke="#FF00FF" stroke-width="0.933333" stroke-miterlimit="8" stroke-opacity="0.301961" fill="none" fill-rule="evenodd"/><text font-family="SimSun,SimSun_MSFontService,Arial" font-weight="400" font-size="12" transform="translate(573.382 469)">檢測批質控品測定數量</text><path d="M0 0C7.45584 0 13.5 1.00733 13.5 2.24993L13.5 40.2501C13.5 41.4927 19.5442 42.5 27 42.5 19.5442 42.5 13.5 43.5073 13.5 44.7499L13.5 82.7501C13.5 83.9927 7.45584 85 1.35271e-15 85" stroke="#FF00FF" stroke-width="0.933333" stroke-miterlimit="8" stroke-opacity="0.301961" fill="none" fill-rule="evenodd" transform="matrix(-1 0 0 1 564.5 448.5)"/><text font-family="SimSun,SimSun_MSFontService,Arial" font-weight="400" font-size="12" transform="translate(573.382 498)">控制規則</text><text font-family="SimSun,SimSun_MSFontService,Arial" font-weight="400" font-size="12" transform="translate(573.33 526)">最佳檢測批長度</text><path d="M699.5 448.5C706.956 448.5 713 449.507 713 450.75L713 488.25C713 489.493 719.044 490.5 726.5 490.5 719.044 490.5 713 491.507 713 492.75L713 530.25C713 531.493 706.956 532.5 699.5 532.5" stroke="#FF00FF" stroke-width="0.933333" stroke-miterlimit="8" stroke-opacity="0.301961" fill="none" fill-rule="evenodd"/><text font-family="SimSun,SimSun_MSFontService,Arial" font-weight="400" font-size="12" transform="translate(814.11 468)">檢測</text><text font-family="SimSun,SimSun_MSFontService,Arial" font-weight="400" font-size="12" transform="translate(838.11 468)">過程的品質</text><path d="M0 0C7.45584 0 13.5 1.00732 13.5 2.24992L13.5 39.7501C13.5 40.9927 19.5442 42 27 42 19.5442 42 13.5 43.0073 13.5 44.2499L13.5 81.7501C13.5 82.9927 7.45584 84 2.67358e-15 84" stroke="#FF00FF" stroke-width="0.933333" stroke-miterlimit="8" stroke-opacity="0.301961" fill="none" fill-rule="evenodd" transform="matrix(-1 0 0 1 805.5 448.5)"/><text font-family="SimSun,SimSun_MSFontService,Arial" font-weight="400" font-size="12" transform="translate(814.11 497)">檢測過程的生產率</text><text font-family="SimSun,SimSun_MSFontService,Arial" font-weight="400" font-size="12" transform="translate(814.059 525)">檢測過程的風險</text><path d="M913.5 97.5001C920.956 97.5001 927 98.5074 927 99.75L927 367.75C927 368.993 933.044 370 940.5 370 933.044 370 927 371.007 927 372.25L927 640.25C927 641.493 920.956 642.5 913.5 642.5" stroke="#FF00FF" stroke-width="0.933333" stroke-miterlimit="8" stroke-opacity="0.301961" fill="none" fill-rule="evenodd"/><text font-family="SimSun,SimSun_MSFontService,Arial" font-weight="400" font-size="12" transform="translate(820.533 635)">診斷準確度估計</text><text font-family="SimSun,SimSun_MSFontService,Arial" font-weight="400" font-size="12" transform="translate(820.481 352)">診斷的經濟評價</text><text font-family="SimSun,SimSun_MSFontService,Arial" font-weight="400" font-size="12" transform="translate(1102.1 374)">證據評價、分級、推薦</text><text font-family="SimSun,SimSun_MSFontService,Arial" font-weight="400" font-size="12" transform="translate(639.331 609)">診斷試驗的系統評價</text><text font-family="SimSun,SimSun_MSFontService,Arial" font-weight="400" font-size="12" transform="translate(1150.04 565)">臨床決策分析</text><path d="M1232.5 353.5C1239.96 353.5 1246 354.507 1246 355.75L1246 461.25C1246 462.493 1252.04 463.5 1259.5 463.5 1252.04 463.5 1246 464.507 1246 465.75L1246 571.25C1246 572.493 1239.96 573.5 1232.5 573.5" stroke="#FF00FF" stroke-width="0.933333" stroke-miterlimit="8" stroke-opacity="0.301961" fill="none" fill-rule="evenodd"/><text font-family="SimSun,SimSun_MSFontService,Arial" font-weight="400" font-size="12" transform="translate(1268.83 469)">診斷試驗的應用</text><path d="M21.5001 589.5C28.9559 589.5 35.0001 590.507 35.0001 591.75L35.0001 615.25C35.0001 616.493 41.0443 617.5 48.5001 617.5 41.0443 617.5 35.0001 618.507 35.0001 619.75L35.0001 643.25C35.0001 644.493 28.9559 645.5 21.5001 645.5" stroke="#FF00FF" stroke-width="0.933333" stroke-miterlimit="8" stroke-opacity="0.301961" fill="none" fill-rule="evenodd"/><text font-family="SimSun,SimSun_MSFontService,Arial" font-weight="400" font-size="12" transform="translate(-156.608 638)">基於</text><text font-family="SimSun,SimSun_MSFontService,Arial" font-weight="400" font-size="12" transform="translate(-132.608 638)">隨機採樣</text><text font-family="SimSun,SimSun_MSFontService,Arial" font-weight="400" font-size="12" transform="translate(-84.6078 638)">的計算機仿真分析</text><text font-family="SimSun,SimSun_MSFontService,Arial" font-weight="400" font-size="12" transform="translate(627.377 660)">受衆檢測值的</text><text font-family="SimSun,SimSun_MSFontService,Arial" font-weight="400" font-size="12" transform="translate(699.377 660)">分布特徵</text><path d="M757.5 640.5C764.956 640.5 771 641.507 771 642.75L771 666.75C771 667.993 777.044 669 784.5 669 777.044 669 771 670.007 771 671.25L771 695.25C771 696.493 764.956 697.5 757.5 697.5" stroke="#FF00FF" stroke-width="0.933333" stroke-miterlimit="8" stroke-opacity="0.301961" fill="none" fill-rule="evenodd"/><text font-family="SimSun,SimSun_MSFontService,Arial" font-weight="400" font-size="12" transform="translate(483.558 690)">基於</text><text font-family="SimSun,SimSun_MSFontService,Arial" font-weight="400" font-size="12" transform="translate(507.558 690)">隨機採樣和無記憶隨機過程</text><text font-family="SimSun,SimSun_MSFontService,Arial" font-weight="400" font-size="12" transform="translate(651.558 690)">的計算機仿真分析</text><path d="M723.5 490.033 772.193 490.033 772.193 490.967 723.5 490.967ZM772.193 490.5 766.86 487.833 780.193 490.5 766.86 493.167Z" fill="#FF00FF" fill-opacity="0.301961"/><path d="M778.5 589.5C785.68 589.5 791.5 590.47 791.5 591.667L791.5 627.333C791.5 628.53 797.32 629.5 804.5 629.5 797.32 629.5 791.5 630.47 791.5 631.667L791.5 667.333C791.5 668.53 785.68 669.5 778.5 669.5" stroke="#FF00FF" stroke-width="0.933333" stroke-miterlimit="8" stroke-opacity="0.301961" fill="none" fill-rule="evenodd"/><path d="M470.5 491.033 530.532 491.033 530.532 491.967 470.5 491.967ZM530.532 491.5 525.198 488.833 538.532 491.5 525.198 494.167Z" fill="#FF00FF" fill-opacity="0.301961"/><text font-family="SimSun,SimSun_MSFontService,Arial" font-weight="400" font-size="12" transform="translate(695.402 337)">生存品質調查</text><text font-family="SimSun,SimSun_MSFontService,Arial" font-weight="400" font-size="12" transform="translate(687.402 366)">成本</text><text font-family="STSong,STSong_MSFontService,Arial" font-weight="400" font-size="12" transform="translate(711.402 366)">~</text><text font-family="SimSun,SimSun_MSFontService,Arial" font-weight="400" font-size="12" transform="translate(719.402 366)">效用分析</text><path d="M778.5 316.5C785.68 316.5 791.5 317.47 791.5 318.667L791.5 343.833C791.5 345.03 797.32 346 804.5 346 797.32 346 791.5 346.97 791.5 348.167L791.5 373.333C791.5 374.53 785.68 375.5 778.5 375.5" stroke="#FF00FF" stroke-width="0.933333" stroke-miterlimit="8" stroke-opacity="0.301961" fill="none" fill-rule="evenodd"/><text font-family="SimSun,SimSun_MSFontService,Arial" font-weight="400" font-size="12" transform="translate(1045.01 449)">決策樹模型</text><text font-family="SimSun,SimSun_MSFontService,Arial" font-weight="400" font-size="12" transform="translate(1021.01 479)">貝葉斯決策模型</text><path d="M1113.5 429.5C1120.68 429.5 1126.5 430.47 1126.5 431.667L1126.5 556.333C1126.5 557.53 1132.32 558.5 1139.5 558.5 1132.32 558.5 1126.5 559.47 1126.5 560.667L1126.5 685.333C1126.5 686.53 1120.68 687.5 1113.5 687.5" stroke="#FF00FF" stroke-width="0.933333" stroke-miterlimit="8" stroke-opacity="0.301961" fill="none" fill-rule="evenodd"/><text font-family="SimSun,SimSun_MSFontService,Arial" font-weight="400" font-size="12" transform="translate(973.01 508)">無記憶隨機過程決策模型</text><text font-family="SimSun,SimSun_MSFontService,Arial" font-weight="400" font-size="12" transform="translate(1045.01 536)">敏感性分析</text><text font-family="SimSun,SimSun_MSFontService,Arial" font-weight="400" font-size="12" transform="translate(1045.01 565)">閾值</text><text font-family="SimSun,SimSun_MSFontService,Arial" font-weight="400" font-size="12" transform="translate(1069.01 565)">判別</text><text font-family="SimSun,SimSun_MSFontService,Arial" font-weight="400" font-size="12" transform="translate(1093.01 565)">法</text><text font-family="SimSun,SimSun_MSFontService,Arial" font-weight="400" font-size="12" transform="translate(1057.01 594)">典則判別</text><text font-family="SimSun,SimSun_MSFontService,Arial" font-weight="400" font-size="12" transform="translate(1033.01 622)">最大似然判別</text><text font-family="SimSun,SimSun_MSFontService,Arial" font-weight="400" font-size="12" transform="translate(1009.01 651)">邏輯回歸判別模型</text><text font-family="SimSun,SimSun_MSFontService,Arial" font-weight="400" font-size="12" transform="translate(985.01 680)">比例風險回歸判別模型</text><path d="M938.5 370.033 1085.46 370.034 1085.46 370.967 938.5 370.967ZM1085.46 370.5 1080.13 366.5 1093.46 370.5 1080.13 374.5Z" fill="#FF00FF" fill-opacity="0.301961"/><text font-family="SimSun,SimSun_MSFontService,Arial" font-weight="400" font-size="12" transform="translate(603.093 271)">《</text><text font-family="SimSun,SimSun_MSFontService,Arial" font-weight="400" font-size="12" transform="translate(615.093 271)">英國醫學雜誌</text><text font-family="SimSun,SimSun_MSFontService,Arial" font-weight="400" font-size="12" transform="translate(687.093 271)">》</text><text font-family="SimSun,SimSun_MSFontService,Arial" font-weight="400" font-size="12" transform="translate(699.093 271)">證據推薦分級的評估、制訂、評價標準</text><text font-family="SimSun,SimSun_MSFontService,Arial" font-weight="400" font-size="12" transform="translate(603.093 243)">英國</text><text font-family="SimSun,SimSun_MSFontService,Arial" font-weight="400" font-size="12" transform="translate(627.093 243)">牛津</text><text font-family="SimSun,SimSun_MSFontService,Arial" font-weight="400" font-size="12" transform="translate(651.093 243)">大學</text><text font-family="SimSun,SimSun_MSFontService,Arial" font-weight="400" font-size="12" transform="translate(675.093 243)">循證醫學中心臨床研究證據分級與推薦強度</text><text font-family="SimSun,SimSun_MSFontService,Arial" font-weight="400" font-size="12" transform="translate(124.033 77)">英國倫敦生物醫學研究中心</text><text font-family="SimSun,SimSun_MSFontService,Arial" font-weight="400" font-size="12" transform="translate(268.033 77)">《</text><text font-family="SimSun,SimSun_MSFontService,Arial" font-weight="400" font-size="12" transform="translate(280.033 77)">醫學研究方法論雜誌</text><text font-family="SimSun,SimSun_MSFontService,Arial" font-weight="400" font-size="12" transform="translate(388.033 77)">》</text><text font-family="SimSun,SimSun_MSFontService,Arial" font-weight="400" font-size="12" transform="translate(400.033 77)">診斷性原始研究品質評價清單</text><text font-family="SimSun,SimSun_MSFontService,Arial" font-weight="400" font-size="12" transform="translate(243.776 49)">《</text><text font-family="SimSun,SimSun_MSFontService,Arial" font-weight="400" font-size="12" transform="translate(255.776 49)">荷蘭醫學雜誌</text><text font-family="SimSun,SimSun_MSFontService,Arial" font-weight="400" font-size="12" transform="translate(327.776 49)">》</text><text font-family="SimSun,SimSun_MSFontService,Arial" font-weight="400" font-size="12" transform="translate(339.776 49)">診斷準確性研究報告</text><text font-family="SimSun,SimSun_MSFontService,Arial" font-weight="400" font-size="12" transform="translate(447.776 49)">品質評價</text><text font-family="SimSun,SimSun_MSFontService,Arial" font-weight="400" font-size="12" transform="translate(495.776 49)">的清單</text><text font-family="SimSun,SimSun_MSFontService,Arial" font-weight="400" font-size="12" transform="translate(531.776 49)">聲明</text><path d="M566.5 28.5001C573.68 28.5001 579.5 29.4701 579.5 30.6666L579.5 54.3335C579.5 55.53 585.32 56.5001 592.5 56.5001 585.32 56.5001 579.5 57.4701 579.5 58.6666L579.5 82.3335C579.5 83.53 573.68 84.5 566.5 84.5" stroke="#FF00FF" stroke-width="0.933333" stroke-miterlimit="8" stroke-opacity="0.301961" fill="none" fill-rule="evenodd"/><text font-family="SimSun,SimSun_MSFontService,Arial" font-weight="400" font-size="12" transform="translate(603.682 63)">診斷準確性研究品質評價</text><text font-family="SimSun,SimSun_MSFontService,Arial" font-weight="400" font-size="12" transform="translate(232.213 174)">英國倫敦生物醫學研究中心</text><text font-family="SimSun,SimSun_MSFontService,Arial" font-weight="400" font-size="12" transform="translate(376.213 174)">《</text><text font-family="SimSun,SimSun_MSFontService,Arial" font-weight="400" font-size="12" transform="translate(388.213 174)">醫學研究方法論雜誌</text><text font-family="SimSun,SimSun_MSFontService,Arial" font-weight="400" font-size="12" transform="translate(496.213 174)">》</text><text font-family="SimSun,SimSun_MSFontService,Arial" font-weight="400" font-size="12" transform="translate(508.213 174)">系統評價研究設計的方法學報告規範的量表</text><text font-family="SimSun,SimSun_MSFontService,Arial" font-weight="400" font-size="12" transform="translate(460.213 145)">《</text><text font-family="SimSun,SimSun_MSFontService,Arial" font-weight="400" font-size="12" transform="translate(472.213 145)">英國醫學雜誌</text><text font-family="SimSun,SimSun_MSFontService,Arial" font-weight="400" font-size="12" transform="translate(544.213 145)">》</text><text font-family="SimSun,SimSun_MSFontService,Arial" font-weight="400" font-size="12" transform="translate(556.213 145)">系統評價</text><text font-family="SimSun,SimSun_MSFontService,Arial" font-weight="400" font-size="12" transform="translate(604.213 145)">研究</text><text font-family="SimSun,SimSun_MSFontService,Arial" font-weight="400" font-size="12" transform="translate(628.213 145)">優先報告條目</text><text font-family="SimSun,SimSun_MSFontService,Arial" font-weight="400" font-size="12" transform="translate(700.213 145)">的</text><text font-family="SimSun,SimSun_MSFontService,Arial" font-weight="400" font-size="12" transform="translate(712.213 145)">聲明</text><path d="M746.5 42.5001C753.956 42.5001 760 43.5074 760 44.7499L760 110.25C760 111.493 766.044 112.5 773.5 112.5 766.044 112.5 760 113.507 760 114.75L760 180.25C760 181.493 753.956 182.5 746.5 182.5" stroke="#FF00FF" stroke-width="0.933333" stroke-miterlimit="8" stroke-opacity="0.301961" fill="none" fill-rule="evenodd"/><text font-family="SimSun,SimSun_MSFontService,Arial" font-weight="400" font-size="12" transform="translate(783.482 118)">系統評價研究報告規範</text><path d="M104.5 793.167 285.476 793.167 285.476 793.833 104.5 793.833ZM285.476 793.5 280.143 789.5 293.476 793.5 280.143 797.5Z" fill="#4472C4"/><text fill="#4D4D4D" font-family="SimSun,SimSun_MSFontService,Arial" font-weight="400" font-size="15" transform="translate(35.3314 802)">醫療器械</text><path d="M372.5 793.167 553.476 793.167 553.476 793.833 372.5 793.833ZM553.476 793.5 548.143 789.5 561.476 793.5 548.143 797.5Z" fill="#4472C4"/><text fill="#4D4D4D" font-family="SimSun,SimSun_MSFontService,Arial" font-weight="400" font-size="15" transform="translate(303.542 802)">運行結果</text><path d="M641.5 793.167 822.476 793.167 822.476 793.833 641.5 793.833ZM822.476 793.5 817.143 789.5 830.476 793.5 817.143 797.5Z" fill="#4472C4"/><text fill="#4D4D4D" font-family="SimSun,SimSun_MSFontService,Arial" font-weight="400" font-size="15" transform="translate(571.682 801)">特定事件</text><path d="M909.5 793.167 912.167 793.167 912.167 793.833 909.5 793.833ZM914.167 793.167 916.833 793.167 916.833 793.833 914.167 793.833ZM918.833 793.167 921.5 793.167 921.5 793.833 918.833 793.833ZM923.5 793.167 926.167 793.167 926.167 793.833 923.5 793.833ZM928.167 793.167 930.833 793.167 930.833 793.833 928.167 793.833ZM932.833 793.167 935.5 793.167 935.5 793.833 932.833 793.833ZM937.5 793.167 940.167 793.167 940.167 793.833 937.5 793.833ZM942.167 793.167 944.833 793.167 944.833 793.833 942.167 793.833ZM946.833 793.167 949.5 793.167 949.5 793.833 946.833 793.833ZM951.5 793.167 954.167 793.167 954.167 793.833 951.5 793.833ZM956.167 793.167 958.833 793.167 958.833 793.833 956.167 793.833ZM960.833 793.167 963.5 793.167 963.5 793.833 960.833 793.833ZM965.5 793.167 968.167 793.167 968.167 793.833 965.5 793.833ZM970.167 793.167 972.833 793.167 972.833 793.833 970.167 793.833ZM974.833 793.167 977.5 793.167 977.5 793.833 974.833 793.833ZM979.5 793.167 982.167 793.167 982.167 793.833 979.5 793.833ZM984.167 793.167 986.833 793.167 986.833 793.833 984.167 793.833ZM988.833 793.167 991.5 793.167 991.5 793.833 988.833 793.833ZM993.5 793.167 996.167 793.167 996.167 793.833 993.5 793.833ZM998.167 793.167 1000.83 793.167 1000.83 793.833 998.167 793.833ZM1002.83 793.167 1005.5 793.167 1005.5 793.833 1002.83 793.833ZM1007.5 793.167 1010.17 793.167 1010.17 793.833 1007.5 793.833ZM1012.17 793.167 1014.83 793.167 1014.83 793.833 1012.17 793.833ZM1016.83 793.167 1019.5 793.167 1019.5 793.833 1016.83 793.833ZM1021.5 793.167 1024.17 793.167 1024.17 793.833 1021.5 793.833ZM1026.17 793.167 1028.83 793.167 1028.83 793.833 1026.17 793.833ZM1030.83 793.167 1033.5 793.167 1033.5 793.833 1030.83 793.833ZM1035.5 793.167 1038.17 793.167 1038.17 793.833 1035.5 793.833ZM1040.17 793.167 1042.83 793.167 1042.83 793.833 1040.17 793.833ZM1044.83 793.167 1047.5 793.167 1047.5 793.833 1044.83 793.833ZM1049.5 793.167 1052.17 793.167 1052.17 793.833 1049.5 793.833ZM1054.17 793.167 1056.83 793.167 1056.83 793.833 1054.17 793.833ZM1058.83 793.167 1061.5 793.167 1061.5 793.833 1058.83 793.833ZM1063.5 793.167 1066.17 793.167 1066.17 793.833 1063.5 793.833ZM1068.17 793.167 1070.83 793.167 1070.83 793.833 1068.17 793.833ZM1072.83 793.167 1075.5 793.167 1075.5 793.833 1072.83 793.833ZM1077.5 793.167 1080.17 793.167 1080.17 793.833 1077.5 793.833ZM1082.17 793.167 1084.83 793.167 1084.83 793.833 1082.17 793.833ZM1086.83 793.167 1089.5 793.167 1089.5 793.833 1086.83 793.833ZM1090.48 793.5 1085.14 789.5 1098.48 793.5 1085.14 797.5Z" fill="#4472C4"/><text fill="#4D4D4D" font-family="SimSun,SimSun_MSFontService,Arial" font-weight="400" font-size="15" transform="translate(839.893 802)">特定現象</text><text fill="#4D4D4D" font-family="SimSun,SimSun_MSFontService,Arial" font-weight="400" font-size="15" transform="translate(1108.03 801)">用戶價值</text></g></svg>